<?xml version="1.0" standalone="no"?>
<!DOCTYPE svg PUBLIC "-//W3C//DTD SVG 1.1//EN" "http://www.w3.org/Graphics/SVG/1.1/DTD/svg11.dtd">
<svg xmlns="http://www.w3.org/2000/svg">
<defs >
<font id="Piazzolla" horiz-adv-x="594" ><font-face
    font-family="Piazzolla Thin Medium"
    units-per-em="1000"
    panose-1="0 0 0 0 0 0 0 0 0 0"
    ascent="1110"
    descent="-310"
    alphabetic="0" />
<glyph unicode=" " horiz-adv-x="175" />
<glyph unicode="!" horiz-adv-x="286" d="M194 663L193 549L167 206H115L103 549L106 663Q117 665 128 666T150 667Q161 667 172 666T194 663ZM152 118Q168 106 180 86T197 42Q181 25 161 13T119 -2Q102 14 91 34T76 75Q90 92 110 104T152 118Z" />
<glyph unicode="&quot;" horiz-adv-x="407" d="M107 466L87 674Q98 677 109 677T131 678Q143 678 154 678T176 674L156 466H107ZM235 466L215 674Q226 677 237 677T259 678Q271 678 282 678T304 674L284 466H235Z" />
<glyph unicode="#" horiz-adv-x="621" d="M331 2L438 608H487L380 2H331ZM28 183L37 231H558L550 183H28ZM133 2L240 608H289L182 2H133ZM62 378L71 428H594L584 378H62Z" />
<glyph unicode="$" horiz-adv-x="592" d="M310 -142H258L294 739H345L310 -142ZM263 -9Q218 -9 170 -2T70 19L106 80Q170 64 240 60T384 63Q410 78 425 99T440 142Q440 171 414 193T348 236T261 276T175 322T109 381T83 459Q83 510 114 546T203 601T336 621Q376
621 418 616T504 599L479 534Q409 550 342 552T214 546Q193 535 182 516T170 474Q170 442 196 418T262 374T349 334T435 289T501 232T527 156Q527 105 494 68T402 11T263 -9ZM158 18L70 19L75 201H109L158 18ZM464 422L418 599H504L499 422H464Z" />
<glyph unicode="%" horiz-adv-x="861" d="M221 241Q151 241 109 290T67 420Q67 476 87 518T143 584T227 608Q275 608 310 586T364 524T383 430Q383 374 363 332T307 265T221 241ZM224 285Q265 285 289 322T314 426Q314 490 290 526T222 562Q188 562 165 542Q151
513 144 483T137 421Q137 358 161 322T224 285ZM193 -52L151 -20L673 657L714 626L193 -52ZM655 -6Q585 -6 543 43T501 173Q501 229 521 271T577 337T661 361Q709 361 744 339T798 277T817 183Q817 127 797 85T741 18T655 -6ZM658 38Q699 38 723 75T748 179Q748
243 724 279T656 315Q622 315 599 295Q585 266 578 236T571 174Q571 111 595 75T658 38Z" />
<glyph unicode="&amp;" horiz-adv-x="654" d="M521 0L163 366Q118 411 101 443T84 513Q84 583 134 622T276 667T492 644L475 575Q390 594 313 597T167 586L186 614Q165 573 161 542T171 481T219 419L596 35V0H521ZM257 -11Q188 -11 136 11T54 73T24 166Q24 229
64 279T180 365L210 346Q155 306 129 267T102 184Q102 143 126 113T190 67T276 49T369 63T454 112Q472 170 470 236T442 369L500 366Q527 284 522 215T484 95T394 17T257 -11ZM524 0V68L654 36V0H524ZM477 336L385 368V404H616V372Q576 361 539 352T477 336ZM451
464L398 644H492L489 464H451Z" />
<glyph unicode="&apos;" horiz-adv-x="243" d="M97 466L77 674Q88 677 99 677T121 678Q133 678 144 678T166 674L146 466H97Z" />
<glyph unicode="(" horiz-adv-x="326" d="M296 -204Q183 -121 122 2T60 272Q60 418 121 541T296 747L320 722Q232 635 186 521T140 272Q140 137 186 23T320 -179L296 -204Z" />
<glyph unicode=")" horiz-adv-x="326" d="M30 748Q143 666 204 543T266 273Q266 126 205 3T30 -203L6 -178Q94 -91 140 23T186 273Q186 407 140 522T6 723L30 748Z" />
<glyph unicode="*" horiz-adv-x="389" d="M192 549L100 592L71 625Q82 642 98 657L136 637L202 559L192 549ZM91 457Q85 464 79 472T67 491L97 522L193 560L201 547L131 475L91 457ZM215 411L197 450L189 551L203 556L251 466L256 423Q246 420 236 417T215 411ZM295
521L196 546L197 561L296 579L339 569Q341 549 338 527L295 521ZM203 551L190 556L203 656L225 694Q235 692 245 688T264 680L257 637L203 551Z" />
<glyph unicode="+" horiz-adv-x="531" d="M233 63V506H298V63H233ZM44 252V316H487V252H44Z" />
<glyph unicode="," horiz-adv-x="277" d="M92 -98L116 54L208 46Q192 9 172 -28T125 -103L92 -98ZM127 2L88 77Q107 94 126 104T168 120Q182 105 192 88T208 46L127 2Z" />
<glyph unicode="-" horiz-adv-x="314" d="M41 297L268 325L275 260L48 232L41 297Z" />
<glyph unicode="." horiz-adv-x="278" d="M123 -2Q106 11 95 31T78 75Q93 91 113 102T156 118Q172 103 184 83T199 41Q186 25 165 13T123 -2Z" />
<glyph unicode="/" horiz-adv-x="338" d="M39 -201L-9 -184L299 746L349 731L39 -201Z" />
<glyph unicode="0" horiz-adv-x="625" d="M306 -8Q233 -8 179 29T96 135T66 295Q66 390 97 462T185 574T316 615Q389 615 444 577T529 471T560 311Q560 217 529 145T440 33T306 -8ZM312 53Q358 53 392 84T446 172T465 306Q465 381 447 435T393 520T309 550Q282
550 256 540T209 511Q185 461 173 407T160 297Q160 223 179 168T232 83T312 53Z" />
<glyph unicode="1" horiz-adv-x="405" d="M33 0V31Q67 40 101 46T168 55L176 541H40V571L210 614H266V55L395 35V0H33Z" />
<glyph unicode="2" horiz-adv-x="597" d="M76 0L77 69Q77 112 101 149T163 219T243 283T322 344T384 407T408 477Q408 504 398 524T363 562L417 528Q349 542 283 542Q239 542 196 537T109 522L95 592Q148 604 195 610T284 616Q385 616 442 581T499 478Q499 433
475 395T414 323T334 259T254 198T192 136T167 68L166 0H76ZM113 0V61L495 71V0H113ZM430 0L484 204H520L522 0H430ZM97 383L95 592L182 593L133 383H97Z" />
<glyph unicode="3" horiz-adv-x="582" d="M86 19L106 81Q151 70 190 64T261 58Q334 58 375 86T416 170Q416 222 380 251T280 281H207V346H261Q304 346 336 359T386 398T404 459Q404 483 395 503T370 541Q333 551 282 551Q245 551 204 546T118 529L98 590Q149 604
196 611T284 618Q350 618 397 601T471 552T497 474Q497 420 462 379T363 319Q435 305 473 266T511 165Q511 110 481 71T396 12T268 -9Q227 -9 182 -2T86 19ZM91 203H127L178 19H86L91 203ZM103 409L98 590L190 591L139 409H103Z" />
<glyph unicode="4" horiz-adv-x="558" d="M202 0V29Q229 38 255 43T307 53L316 551L334 543L75 194L62 223H522V167H32L20 211L314 606H398V52L494 32V0H202Z" />
<glyph unicode="5" horiz-adv-x="600" d="M277 -9Q236 -9 191 -2T97 19L112 83Q161 71 203 65T283 58Q349 58 408 78Q422 101 429 124T436 168Q436 219 402 252T307 285H114L148 352H315Q415 352 469 308T524 182Q524 92 459 42T277 -9ZM190 18L97 19L102 196H137L190
18ZM114 285V606H183L180 318L114 285ZM475 537L148 541L114 606H475V537ZM459 418L406 606H497L494 418H459Z" />
<glyph unicode="6" horiz-adv-x="591" d="M297 -8Q182 -8 128 62T73 281Q73 451 143 534T358 618Q388 618 421 614T491 603L470 530Q403 553 325 553Q288 553 251 546T178 524L218 544Q190 497 175 428T160 278Q160 162 193 110T301 57Q359 57 392 89T425 180Q425
235 395 261T301 287H109V351H312Q409 351 461 308T513 182Q513 94 455 43T297 -8ZM454 424L405 603H491L488 424H454Z" />
<glyph unicode="7" horiz-adv-x="511" d="M48 386L44 606H132L84 386H48ZM66 531V606H445V537L66 531ZM486 578L229 0H149L421 606H486V578Z" />
<glyph unicode="8" horiz-adv-x="584" d="M287 -10Q223 -10 174 10T96 67T68 150Q68 209 111 255T234 326L253 302Q197 273 171 239T145 163Q145 111 187 81T301 51Q338 51 381 60Q408 75 423 96T439 140Q439 171 413 193T347 235T262 274T176 319T110 377T84
456Q84 503 111 540T188 598T299 620Q357 620 402 601T473 549T499 472Q499 415 457 367T339 290L320 314Q373 348 398 383T423 458Q423 507 389 532T292 558Q275 558 256 556T217 550Q194 537 181 516T167 473Q167 440 192 416T258 372T343 332T428 288T494 232T520
156Q520 109 490 71T407 12T287 -10Z" />
<glyph unicode="9" horiz-adv-x="590" d="M292 618Q408 618 463 548T518 328Q518 159 448 75T232 -9Q202 -9 169 -5T99 6L120 79Q188 58 267 58Q341 58 412 86L373 66Q400 113 415 182T430 331Q430 448 397 500T289 553Q231 553 199 520T166 429Q166 375 196 349T289
322H481V259H278Q181 259 129 302T77 428Q77 516 135 567T292 618ZM136 185L185 6H99L102 185H136Z" />
<glyph unicode=":" horiz-adv-x="282" d="M133 -2Q116 11 105 31T88 75Q103 91 123 102T166 118Q182 103 194 83T209 41Q196 25 175 13T133 -2ZM133 271Q116 284 105 304T88 348Q103 364 123 375T166 391Q182 376 194 356T209 314Q196 298 175 286T133 271Z" />
<glyph unicode=";" horiz-adv-x="283" d="M103 -98L127 54L219 46Q203 9 183 -28T136 -103L103 -98ZM138 2L99 77Q118 94 137 104T179 120Q193 105 203 88T219 46L138 2ZM134 269Q117 282 106 302T89 346Q104 362 124 373T167 389Q183 374 195 354T210 312Q197
296 176 284T134 269Z" />
<glyph unicode="&lt;" horiz-adv-x="471" d="M407 133L377 77L37 268V300L377 492L407 436L126 284L407 133Z" />
<glyph unicode="=" horiz-adv-x="644" d="M120 335V400H523V335H120ZM120 169V234H523V169H120Z" />
<glyph unicode="&gt;" horiz-adv-x="475" d="M68 436L98 492L438 300V268L98 76L68 133L349 285L68 436Z" />
<glyph unicode="?" horiz-adv-x="441" d="M219 667Q318 667 374 628T430 518Q430 477 412 447T368 395T314 353T265 311T240 260L230 206H174L173 268Q173 301 190 326T232 371T282 411T324 455T341 511Q341 552 307 574T208 597Q149 597 69 576L50 641Q93 653
136 660T219 667ZM139 640L84 453H50V641L139 640ZM215 118Q231 106 243 86T260 42Q244 25 224 13T182 -2Q165 14 154 34T139 75Q153 92 173 104T215 118Z" />
<glyph unicode="@" horiz-adv-x="871" d="M773 -139Q656 -189 546 -199T341 -186T175 -107T63 30T22 217Q22 313 56 394T153 536T299 630T478 663Q562 663 631 639T750 569T829 462T857 330Q857 265 834 209T769 110T673 45T556 21Q519 21 500 31T471 67L518 235L510
239L564 469H637L541 44L516 65Q579 55 634 70T731 121T798 209T822 325Q822 412 779 480T659 589T479 629Q390 629 313 599T179 512T89 382T56 219Q56 122 93 46T198 -80T353 -153T546 -165T760 -109L773 -139ZM355 21Q291 14 256 56T220 184Q220 245 237 298T284
391T353 453T438 476Q480 476 511 457T556 403L553 371Q523 398 485 411T397 427L435 431Q395 416 364 379T315 291T296 188T313 91L289 113Q331 87 376 81L352 72Q388 98 420 135T481 225T541 349L559 339Q511 217 461 139T355 21Z" />
<glyph unicode="A" horiz-adv-x="726" d="M640 51Q658 47 675 43T710 32V0H433V32L534 52L338 624H362L160 56Q190 51 219 45T277 32V0H16V32L85 56L309 658H418L640 51ZM187 213V271H531V213H187Z" />
<glyph unicode="B" horiz-adv-x="709" d="M468 342Q549 327 594 285T640 179Q640 96 575 48T394 0H45V31Q61 39 86 45T150 55L160 601L45 624V658H404Q499 658 555 617T611 506Q611 449 572 406T468 342ZM251 22L211 62H437Q487 75 514 105T542 181Q542 237 500
270T387 304H240V366H405Q513 407 513 489Q513 539 479 567T383 595H211L251 636V22Z" />
<glyph unicode="C" horiz-adv-x="686" d="M392 -8Q237 -8 154 78T70 326Q70 433 110 510T227 628T408 669Q448 669 492 663T584 645L563 569Q520 583 477 590T391 597Q344 597 298 587T207 557L245 586Q207 528 188 463T169 324Q169 196 229 128T401 60Q435 60
474 67T559 90L584 19Q477 -8 392 -8ZM486 18L548 219H584V19L486 18ZM548 445L487 646L584 645V445H548Z" />
<glyph unicode="D" horiz-adv-x="763" d="M406 658Q495 658 559 619T660 508T696 338Q696 237 658 161T552 43T393 0H45V31Q68 39 94 45T150 55L160 601L45 624V658H406ZM449 63Q522 96 559 162T596 328Q596 399 581 449T537 532T473 579T393 595H211L251 634V23L211
63H449Z" />
<glyph unicode="E" horiz-adv-x="713" d="M580 221H615V0H45V31Q72 40 98 46T150 55L160 601L45 624V658H605V457H570L534 595H211L251 636V369H429L460 454H491V221H460L428 307H251V23L211 63H542L580 221Z" />
<glyph unicode="F" horiz-adv-x="635" d="M583 658V455H548L511 595H211L251 636V350H414L445 435H476V203H445L413 288H251V55L386 35V0H45V31Q72 40 98 46T150 55L160 601L45 624V658H583Z" />
<glyph unicode="G" horiz-adv-x="739" d="M407 -8Q244 -8 156 78T68 326Q68 433 110 510T233 628T426 669Q466 669 512 663T606 645L579 569Q534 583 488 589T396 596Q343 596 291 586T189 555L252 586Q210 527 189 463T167 324Q167 195 232 127T415 58Q452 58
493 65T581 87L606 19Q551 5 501 -1T407 -8ZM509 19L514 275L379 297V332H692V301Q673 293 652 287T606 277V19H509ZM570 447L508 646L606 645V447H570Z" />
<glyph unicode="H" horiz-adv-x="826" d="M471 0V29Q497 39 522 45T573 55L583 601L471 624V658H778V627Q755 620 729 614T673 603V55L778 35V0H471ZM45 0V31Q72 40 98 46T150 55L160 601L45 624V658H353V627Q330 620 304 614T251 603V55L353 35V0H45ZM204 303V366H627V303H204Z"
/>
<glyph unicode="I" horiz-adv-x="404" d="M45 0V31Q72 40 98 46T150 55L160 601L45 624V658H356V627Q332 620 306 614T251 603V55L356 35V0H45Z" />
<glyph unicode="J" horiz-adv-x="525" d="M52 0L63 81Q94 71 121 65T170 59Q208 59 234 67T278 93T309 140L299 87L304 601L156 624V658H495V627Q474 620 450 614T396 603V219Q396 -9 158 -9Q134 -9 108 -7T52 0ZM52 0V226H86L143 0H52Z" />
<glyph unicode="K" horiz-adv-x="775" d="M45 0V31Q72 40 98 46T150 55L160 601L45 624V658H356V627Q332 620 306 614T251 603V55L356 35V0H45ZM440 0V29Q484 46 528 56T618 70L744 35V0H440ZM578 588L441 623V658H724V629Q689 612 653 602T578 588ZM365 322L367
385L675 38V10H564L282 334L574 648H650V625L365 322Z" />
<glyph unicode="L" horiz-adv-x="619" d="M532 268H566V0H45V31Q72 40 98 46T150 55L160 601L45 624V658H372V627Q346 620 315 614T251 603V62H492L532 268Z" />
<glyph unicode="M" horiz-adv-x="984" d="M833 55L943 35V0H629V31Q656 40 682 46T736 55L737 621L749 619L501 0H451L215 609L228 611L219 55L342 35V0H41V31Q68 40 94 46T147 55L167 601L48 624V658H289L498 112H474L694 658H934V627Q910 620 883 614T825 603L833 55Z" />
<glyph unicode="N" horiz-adv-x="813" d="M493 658H781V627Q754 619 729 613T677 603L676 0H576L200 573L222 579V55L344 35V0H46V31Q73 40 98 46T150 55L159 601L45 624V658H258L634 85L614 79L604 604L493 624V658Z" />
<glyph unicode="O" horiz-adv-x="744" d="M364 -9Q276 -9 210 31T106 146T69 320Q69 422 109 500T218 622T377 667Q466 667 533 626T638 511T676 339Q676 235 637 157T528 35T364 -9ZM372 54Q433 54 478 88T550 185T576 332Q576 414 551 474T480 566T370 599Q328
599 286 584T208 538L244 580Q168 460 168 323Q168 242 193 182T265 88T372 54Z" />
<glyph unicode="P" horiz-adv-x="656" d="M398 658Q465 658 512 635T584 570T610 468Q610 405 580 357T496 283T369 256H202V318H432Q474 347 493 381T513 461Q513 527 478 561T375 595H251V55L388 35V0H45V31Q63 40 88 46T150 55L160 601L45 624V658H398Z" />
<glyph unicode="Q" horiz-adv-x="749" d="M363 -9Q275 -9 209 32T105 147T68 321Q68 423 107 501T216 623T376 668Q466 668 533 627T637 512T675 339Q675 236 636 158T527 35T363 -9ZM688 -132L367 1L391 36Q442 27 489 16T595 -13L758 -64Q741 -83 725 -99T688
-132ZM371 55Q432 55 477 89T549 186T575 333Q575 415 550 475T479 567T369 599Q335 599 299 589T231 557Q199 502 183 444T167 324Q167 242 192 182T264 88T371 55Z" />
<glyph unicode="R" horiz-adv-x="730" d="M610 56L705 35V0H519L487 182Q477 239 452 261T373 284H207V346H418Q471 372 495 404T520 478Q520 533 485 564T389 595H251V55L356 35V0H45V31Q61 39 87 45T150 55L160 601L45 624V658H407Q503 658 560 614T617 496Q617
434 577 386T470 318Q519 306 546 273T585 179L610 56Z" />
<glyph unicode="S" horiz-adv-x="642" d="M287 -10Q237 -10 186 -3T83 20L121 86Q167 73 217 66T320 59Q350 59 381 61T444 69L406 57Q424 66 439 81T464 114T474 151Q474 183 447 207T376 253T285 295T194 344T124 407T96 494Q96 547 129 586T222 646T364 667Q409
667 454 661T542 643L516 575Q470 586 423 592T328 598Q296 598 266 595T205 587L247 599Q221 584 205 561T189 511Q189 476 216 450T286 403T377 360T469 312T539 251T567 168Q567 114 532 74T434 12T287 -10ZM178 19L83 20L87 216H125L178 19ZM498 454L447 644L542
643L536 454H498Z" />
<glyph unicode="T" horiz-adv-x="712" d="M656 658V403H622L583 595H403V56L537 35V0H168V31Q202 40 235 47T302 57L312 595H130L91 403H56V658H656Z" />
<glyph unicode="U" horiz-adv-x="779" d="M389 -10Q265 -10 199 46T133 206L140 601L25 624V658H333V627Q313 619 289 613T230 603V201Q230 131 273 94T399 57Q459 57 499 75T570 134L576 601L466 624V658H752V627Q730 619 704 613T646 603L647 216Q647 108 579
49T389 -10Z" />
<glyph unicode="V" horiz-adv-x="725" d="M308 0L72 648H181L385 45H366L579 648H658L417 0H308ZM149 590Q116 595 82 604T16 627V658H293V626L149 590ZM618 590Q575 595 533 604T449 627V658H709V626L618 590Z" />
<glyph unicode="W" horiz-adv-x="1054" d="M665 0L468 648H559L740 45H721L907 648H984L771 0H665ZM278 0L68 648H175L353 45H335L507 604L554 540L384 0H278ZM145 590Q112 595 80 604T17 627V658H287V626L145 590ZM539 590Q504 595 471 604T403 627V658H667V626L539
590ZM945 590Q904 595 864 604T784 627V658H1036V626L945 590Z" />
<glyph unicode="X" horiz-adv-x="785" d="M103 10V39L349 376H444L682 38V10H579L364 324H394L171 10H103ZM347 325L135 623V648H241L427 378H399L588 648H660V624L443 325H347ZM437 0V29Q480 46 525 56T615 70L753 35V0H437ZM27 0V29Q62 46 97 56T170 70L315
35V0H27ZM376 658V629Q332 612 286 602T193 588L61 623V658H376ZM736 658V629Q700 612 664 602T590 588L453 623V658H736Z" />
<glyph unicode="Y" horiz-adv-x="703" d="M323 213L87 623V648H190L381 296H351L545 648H613L614 624L372 213H323ZM175 0V31Q206 40 235 46T296 55L300 289H396V55L518 35V0H175ZM145 588L15 623V658H329V629Q285 612 239 602T145 588ZM542 588L406 623V658H689V629Q654
612 617 602T542 588Z" />
<glyph unicode="Z" horiz-adv-x="680" d="M65 0V32L475 601L157 594L123 445H86L83 658H605V627L195 57L535 66L567 216H603L608 0H65Z" />
<glyph unicode="[" horiz-adv-x="377" d="M123 -195V738H352V705L151 679L198 737V-193L151 -136L352 -163V-195H123Z" />
<glyph unicode="\" horiz-adv-x="338" d="M299 -201L-10 731L40 747L348 -184L299 -201Z" />
<glyph unicode="]" horiz-adv-x="377" d="M240 738V-194H11V-161L212 -135L166 -192V738L212 680L11 707V738H240Z" />
<glyph unicode="^" horiz-adv-x="435" d="M66 227L10 256L201 596H233L425 256L369 227L218 507L66 227Z" />
<glyph unicode="_" horiz-adv-x="640" d="M98 -145H542V-210H98V-145Z" />
<glyph unicode="`" horiz-adv-x="299" d="M239 564Q186 589 135 617T33 677L67 738H80L256 593L239 564Z" />
<glyph unicode="a" horiz-adv-x="531" d="M428 -6Q396 -6 368 17T330 87L342 386Q274 438 176 438Q157 438 139 436T104 430L156 456L137 310Q99 316 80 333T61 377Q61 410 85 438T151 483T244 500Q298 500 344 478T426 417V75L522 81Q519 53 505 34T471 4T428
-6ZM207 -10Q135 -10 92 27T49 123Q49 152 62 173T108 212T202 249T358 291V239L126 196L156 210Q151 195 149 179T146 148Q146 108 165 86T224 64Q252 64 283 75T349 110V94Q319 62 285 36T207 -10Z" />
<glyph unicode="b" horiz-adv-x="551" d="M85 25L122 85Q164 70 198 63T258 55Q334 55 374 103T415 241Q415 289 403 332T366 411L416 365Q350 419 282 419Q227 419 171 376L170 399Q197 430 226 454T286 498Q291 499 295 499T303 499Q365 499 410 468T480 381T505
254Q505 172 474 113T387 23T255 -9Q217 -9 174 -1T85 25ZM85 25L96 631L44 705Q77 724 110 735T179 750V44L85 25Z" />
<glyph unicode="c" horiz-adv-x="464" d="M248 -9Q189 -9 143 23T72 111T46 241Q46 321 75 379T156 468T276 499Q309 499 342 492T407 471L393 402Q326 432 246 432Q220 432 194 425T144 404L184 437Q161 395 149 348T137 255Q137 194 156 152T211 87T291 64Q319
64 349 72T412 98L419 82Q347 -9 248 -9ZM371 324L325 471H407L405 324H371Z" />
<glyph unicode="d" horiz-adv-x="573" d="M247 -9Q187 -9 142 21T72 107T46 236Q46 360 114 429T299 499Q331 499 365 494T438 476L424 399Q344 435 272 435Q238 435 207 427T144 401L180 426Q158 390 147 343T136 244Q136 188 152 150T197 91T263 71Q290 71 319
81T379 114V91Q354 63 325 37T261 -8Q258 -8 255 -8T247 -9ZM471 -6Q448 -6 427 6T390 41T370 99L380 631L328 705Q358 723 390 734T463 750V70L558 77Q553 49 540 31T509 3T471 -6ZM411 761L410 762H411V761Z" />
<glyph unicode="e" horiz-adv-x="503" d="M255 -9Q192 -9 145 22T72 108T46 238Q46 315 73 373T151 465T269 499Q323 499 364 476T427 412T450 316L448 251Q388 240 335 234T224 225T99 219V272L366 275L368 318Q368 372 338 404T259 436Q238 436 215 430T171
411Q152 374 142 334T131 253Q131 161 175 112T295 63Q361 63 444 101L451 83Q408 38 358 15T255 -9Z" />
<glyph unicode="f" horiz-adv-x="349" d="M34 435V453Q53 467 73 475T118 488Q121 552 136 601T179 682T244 732T327 749Q334 749 342 749T360 747V665Q341 667 323 668T287 669Q270 669 253 668T220 664Q210 643 206 597T202 488H345L340 435H34ZM205 463V49L299
29V0H43V27Q57 34 73 40T111 51L118 463H205Z" />
<glyph unicode="g" horiz-adv-x="550" d="M249 -207Q147 -207 89 -168T29 -58Q53 -24 87 0T166 39H182Q146 9 132 -13T118 -54Q118 -94 157 -117T265 -141Q339 -141 384 -114T429 -41Q429 -25 422 -8T403 25H152Q124 42 110 66T96 111Q96 138 115 162T166 202L164
103H400Q433 103 460 86T504 40T520 -26Q520 -79 486 -120T390 -184T249 -207ZM260 170Q162 170 109 211T56 327Q56 381 82 420T156 479T275 500Q373 500 427 459T481 342Q481 289 455 251T379 191T260 170ZM265 228Q324 228 357 258T391 339Q391 387 358 413T268
439Q246 439 222 436T175 426Q161 400 154 374T147 329Q147 283 178 256T265 228ZM413 446Q401 465 394 485T387 518Q387 556 411 576T481 597Q495 597 511 595T547 585L539 525H436L423 446H413Z" />
<glyph unicode="h" horiz-adv-x="586" d="M29 0V27Q42 34 57 40T96 51L107 631L52 705Q83 722 117 734T190 750V49L261 29V0H29ZM331 0V27Q344 35 360 41T397 51L408 376L491 418V49L563 29V0H331ZM183 375L181 395Q209 428 240 453T305 497Q312 498 318 498T331
499Q378 499 418 479T491 418L408 376Q357 419 299 419Q241 419 183 375Z" />
<glyph unicode="i" horiz-adv-x="294" d="M43 0V27Q57 35 73 41T109 51L119 386L66 455Q97 474 131 485T203 501V49L274 29V0H43ZM174 721Q191 705 203 683T220 639Q205 621 183 608T139 593Q121 607 109 629T92 674Q107 692 128 704T174 721Z" />
<glyph unicode="j" horiz-adv-x="273" d="M19 -200L10 -182L96 -58L107 386L53 455Q84 474 118 485T190 501V9Q190 -65 146 -117T19 -200ZM161 721Q178 705 190 683T207 639Q192 621 170 608T126 593Q108 607 96 629T79 674Q94 692 115 704T161 721Z" />
<glyph unicode="k" horiz-adv-x="532" d="M29 0V27Q42 34 58 40T96 51L107 631L52 705Q84 722 118 734T190 750V49L261 29V0H29ZM417 -8L214 258L405 480H472V468L278 243L280 305L516 15Q494 7 469 1T417 -8ZM414 422Q385 427 360 436T310 460V490H511V460L414 422Z" />
<glyph unicode="l" horiz-adv-x="290" d="M29 0V27Q42 34 57 40T96 51L107 631L52 705Q83 722 117 734T190 750V49L261 29V0H29Z" />
<glyph unicode="m" horiz-adv-x="893" d="M34 0V27Q47 34 62 40T100 51L110 386L57 455Q117 491 185 501L194 396V49L265 29V0H34ZM336 0V27Q349 35 364 41T402 51L413 376L502 408L496 392V49L568 29V0H336ZM413 376Q361 419 303 419Q246 419 187 375L185 395Q213
428 244 453T310 497Q317 498 323 498T336 499Q385 499 426 477T502 408L413 376ZM638 0V27Q651 35 666 41T704 51L714 376L798 418V49L870 29V0H638ZM714 376Q664 419 606 419Q548 419 489 375L488 395Q516 428 547 453T612 497Q619 498 625 498T638 499Q685 499
725 479T798 418L714 376Z" />
<glyph unicode="n" horiz-adv-x="591" d="M34 0V27Q47 34 62 40T100 51L110 386L57 455Q117 491 185 501L194 396V49L265 29V0H34ZM336 0V27Q349 35 364 41T402 51L413 376L496 418V49L568 29V0H336ZM187 375L185 395Q213 428 244 453T310 497Q317 498 323 498T335
499Q383 499 423 479T496 418L413 376Q361 419 303 419Q246 419 187 375Z" />
<glyph unicode="o" horiz-adv-x="537" d="M261 -9Q195 -9 147 21T73 107T46 237Q46 316 74 375T153 466T273 499Q339 499 388 469T464 383T491 253Q491 173 463 115T383 24T261 -9ZM267 50Q307 50 336 73T382 140T399 247Q399 308 383 350T337 414T265 436Q238
436 207 427T135 397L186 434Q163 389 151 343T138 242Q138 181 154 138T200 73T267 50Z" />
<glyph unicode="p" horiz-adv-x="555" d="M259 -9Q225 -9 187 -3T108 18L127 85Q169 70 202 63T263 55Q338 55 379 103T420 241Q420 289 408 332T371 411L420 365Q355 419 287 419Q231 419 175 376L174 399Q201 430 230 454T291 498Q295 499 299 499T307 499Q370
499 415 468T484 381T509 254Q509 172 479 113T392 23T259 -9ZM23 -196V-168Q36 -162 51 -155T89 -144L98 386L45 455Q78 473 109 484T174 501L183 396V-146L272 -167V-196H23Z" />
<glyph unicode="q" horiz-adv-x="547" d="M247 -9Q187 -9 142 21T72 107T46 236Q46 360 114 429T299 499Q330 499 365 494T438 476L424 399Q344 435 272 435Q238 435 207 427T144 401L180 426Q158 390 147 343T136 244Q136 188 152 150T197 91T264 71Q290 71 319
81T379 114V91Q354 63 325 37T261 -8Q258 -8 255 -8T247 -9ZM277 -196V-168Q297 -160 318 -154T364 -144L375 469L458 501V-146L521 -167V-196H277Z" />
<glyph unicode="r" horiz-adv-x="396" d="M372 403Q275 410 187 367V384Q214 419 244 446T309 494Q328 494 345 490T377 475L372 403ZM34 0V27Q47 35 62 41T100 51L110 386L57 455Q117 491 185 501L194 383V52L304 29V0H34Z" />
<glyph unicode="s" horiz-adv-x="490" d="M221 -7Q186 -7 145 -2T61 17L97 86Q143 72 186 65T273 58Q289 58 304 59T336 63L302 45Q322 55 336 73T350 114Q350 136 330 152T278 183T211 214T143 250T91 298T70 364Q70 428 126 464T275 500Q306 500 342 496T416
481L391 409Q347 422 306 428T227 435Q212 435 197 434T164 431L192 444Q172 434 163 417T154 382Q154 359 174 341T227 308T294 278T362 242T414 195T435 130Q435 66 376 30T221 -7ZM61 17L65 170H105L152 18L61 17ZM375 337L326 482L416 481L414 337H375Z" />
<glyph unicode="t" horiz-adv-x="371" d="M185 576V488H352L346 435H185V69L351 71Q338 45 316 27T267 0T213 -9Q174 -9 141 8T91 59L103 435H30V454Q62 490 101 521T185 576Z" />
<glyph unicode="u" horiz-adv-x="589" d="M479 70L575 77Q570 49 557 31T525 3T487 -6Q464 -6 443 6T406 41T386 99L394 386L341 455Q408 493 479 501V70ZM271 -7Q264 -8 258 -8T245 -9Q196 -9 156 11T83 75L162 120Q217 72 279 72Q336 72 393 115L396 95Q368
61 337 36T271 -7ZM83 75L93 386L39 455Q108 493 177 501V88L83 75Z" />
<glyph unicode="v" horiz-adv-x="501" d="M205 -5L30 480H131L276 40H256L406 480H475L322 61Q315 41 309 29T291 9T260 -1T205 -5ZM99 422Q71 428 45 437T-4 460V490H208V460L99 422ZM444 422Q376 432 312 460V490H504V460L444 422Z" />
<glyph unicode="w" horiz-adv-x="781" d="M486 -5L314 480H411L555 40H532L684 480H756L601 61Q594 41 588 29T571 9T540 -1T486 -5ZM205 -5L30 480H132L277 40H254L375 394L410 309L320 61Q313 40 307 28T289 9T258 -1T205 -5ZM99 422Q71 428 45 437T-4 460V490H208V460L99
422ZM380 422Q354 428 328 437T279 460V490H487V460L380 422ZM723 422Q689 427 656 436T592 460V490H783V460L723 422Z" />
<glyph unicode="x" horiz-adv-x="538" d="M46 10V34L230 280H311L486 37V10H401L242 240H271L106 10H46ZM11 0V28Q52 54 103 64L190 28V0H11ZM313 0V28Q344 43 375 52T437 65L529 28V0H313ZM132 425Q102 430 76 439T26 462V490H237V462L132 425ZM227 242L72 456V480H160L296
283H268L407 480H469V457L309 242H227ZM437 426Q409 431 383 440T333 462V490H511V462L437 426Z" />
<glyph unicode="y" horiz-adv-x="501" d="M-28 -184L-22 -119L162 -131Q187 -98 204 -69T236 -8T266 69L406 480H475L320 51Q273 -80 215 -141T76 -203Q53 -203 27 -198T-28 -184ZM199 8L30 480H131L278 26L199 8ZM99 422Q72 427 46 436T-4 460V490H208V460L99
422ZM444 422Q410 427 377 436T312 460V490H504V460L444 422Z" />
<glyph unicode="z" horiz-adv-x="511" d="M43 0V27L338 435L123 433L94 323H63L60 490H455V463L160 54L396 57L425 172H456L460 0H43Z" />
<glyph unicode="{" horiz-adv-x="371" d="M22 260V301H43Q99 301 129 329T160 414V579Q160 630 174 664T223 717T326 743V699Q283 691 265 676T242 635T237 572L234 420Q232 352 196 313T87 266L22 260ZM326 -198Q259 -192 224 -173T174 -120T160 -34V130Q160
185 131 214T43 244H22V284L88 278Q157 272 194 232T233 122L237 -28Q237 -64 241 -89T264 -130T326 -155V-198Z" />
<glyph unicode="|" horiz-adv-x="231" d="M90 -196V738H141V-196H90Z" />
<glyph unicode="}" horiz-adv-x="371" d="M349 284V244H328Q272 244 242 216T211 130V-34Q211 -85 197 -119T147 -173T44 -198V-155Q87 -146 106 -131T129 -91T134 -28L137 125Q139 193 175 232T283 278L349 284ZM44 743Q111 737 147 718T197 664T211 579V414Q211
360 240 331T328 301H349V260L283 266Q213 273 176 313T137 423L134 572Q133 609 129 634T106 675T44 699V743Z" />
<glyph unicode="~" horiz-adv-x="595" d="M91 227L74 245Q119 296 145 320T189 349T230 346L408 280L506 344L522 325Q477 274 451 250T407 221T367 224L188 290L91 227Z" />
<glyph unicode="&#xa0;" horiz-adv-x="175" />
<glyph unicode="&#xa1;" horiz-adv-x="287" d="M93 -172L94 -57L120 286H171L183 -57L180 -172Q170 -173 159 -174T136 -176Q125 -176 115 -175T93 -172ZM134 373Q119 386 107 406T89 450Q105 466 125 478T168 493Q185 477 196 457T210 416Q196 399 176 388T134 373Z" />
<glyph unicode="&#xa2;" horiz-adv-x="495" d="M262 -133H211L269 625H320L262 -133ZM259 -9Q200 -9 155 22T85 110T59 241Q59 320 88 378T169 467T289 499Q322 499 354 492T419 471L405 402Q348 431 282 431T157 404L196 437Q174 396 162 349T150 255Q150 190
171 146T231 81T319 63T424 98L432 82Q392 36 349 14T259 -9ZM384 324L337 471H419L417 324H384Z" />
<glyph unicode="&#xa3;" horiz-adv-x="621" d="M69 286V303Q93 317 119 326T173 341Q181 422 204 478T266 566T363 609T502 614V532Q455 537 407 537T307 532Q269 485 259 341H459L455 286H69ZM43 0V31Q69 40 95 47T148 58L169 311H258L248 145Q246 104 233 68T196
0H43ZM175 0V67L516 72L517 0H175ZM449 0L502 200H538L540 0H449Z" />
<glyph unicode="&#xa4;" horiz-adv-x="636" d="M316 120Q264 120 223 144T158 209T135 304Q135 356 158 397T222 462T316 486Q369 486 410 463T475 398T499 304Q499 251 475 210T410 144T316 120ZM127 69L83 113L194 222L237 178L127 69ZM317 181Q351 181 378
197T422 242T439 304Q438 339 422 366T379 409T317 425Q282 425 254 409T209 366T194 304Q194 269 210 241T255 197T317 181ZM510 69L400 179L443 222L553 113L510 69ZM192 387L83 494L127 539L236 429L192 387ZM443 386L401 430L510 539L553 494L443 386Z" />
<glyph unicode="&#xa5;" horiz-adv-x="711" d="M108 264V310H598V264H108ZM108 132V178H598V132H108ZM330 220L110 580V606H203L383 295H353L538 606H602V581L375 220H330ZM194 0V28Q223 37 250 42T305 51L310 291H398V51L510 32V0H194ZM168 541L47 573V606H336V579Q296
563 254 554T168 541ZM532 541L407 573V606H667V579Q635 563 602 554T532 541Z" />
<glyph unicode="&#xa6;" horiz-adv-x="231" d="M90 389V738H141V389H90ZM90 -196V155H141V-196H90Z" />
<glyph unicode="&#xa7;" horiz-adv-x="527" d="M223 -200Q183 -200 140 -193T53 -172L86 -113Q202 -146 325 -130Q347 -116 359 -96T372 -55Q372 -27 349 -8T290 29T214 65T137 108T78 167T55 251Q55 307 88 346T183 402L216 363Q179 351 158 325T137 264Q137
228 160 204T219 160T296 122T373 82T432 30T455 -44Q455 -91 426 -126T345 -180T223 -200ZM137 -174L52 -170L57 10L90 6L137 -174ZM310 57L294 89Q341 100 371 133T402 204Q402 237 379 260T320 302T244 339T168 381T109 435T86 512Q86 581 145 622T307 663Q343
663 380 658T455 640L436 580Q377 595 319 597T204 591Q186 580 177 562T167 524Q167 493 190 472T249 433T325 397T402 355T462 298T485 217Q485 176 464 143T403 87T310 57ZM417 466L371 643L455 640L451 466H417Z" />
<glyph unicode="&#xa8;" horiz-adv-x="412" d="M147 712Q163 697 174 678T188 638Q175 623 156 612T115 598Q100 611 89 630T72 671Q87 686 106 697T147 712ZM323 712Q339 697 350 678T364 638Q351 623 332 612T291 598Q275 611 264 630T249 671Q263 686 282 697T323
712Z" />
<glyph unicode="&#xa9;" horiz-adv-x="735" d="M379 128Q285 128 234 179T183 328Q183 426 238 480T389 535Q414 535 442 532T499 521L484 470Q436 484 387 484T289 467Q252 409 252 328Q252 228 311 193T480 194L499 145Q465 136 435 132T379 128ZM432 144L473
267H499V145L432 144ZM473 399L433 521H499V399H473ZM366 -9Q294 -9 232 16T125 87T54 194T28 330Q28 403 53 464T124 571T231 642T366 667Q439 667 501 642T609 571T680 464T706 330Q706 256 681 195T610 87T502 16T366 -9ZM366 25Q454 25 523 65T632 174T672
330Q672 417 632 485T523 593T366 632Q279 632 211 593T103 486T63 330Q63 243 102 174T210 65T366 25Z" />
<glyph unicode="&#xaa;" horiz-adv-x="365" d="M298 408Q277 408 258 423T232 468L240 648Q219 663 192 671T130 679Q118 679 107 678T84 674L121 693L108 601Q83 604 69 615T55 643Q55 665 71 682T116 709T177 720Q251 720 299 669V462L361 467Q358 440 340 424T298
408ZM154 406Q106 407 77 429T48 490Q48 512 63 528T122 559T251 594V559L101 535L122 544Q119 535 117 525T115 506Q115 482 127 469T165 456Q183 456 203 462T245 481V473Q224 451 203 435T154 406Z" />
<glyph unicode="&#xab;" horiz-adv-x="438" d="M184 41L18 236V251L184 446L219 421L100 243L219 65L184 41ZM370 41L204 236V251L370 446L405 421L286 243L405 65L370 41Z" />
<glyph unicode="&#xac;" horiz-adv-x="633" d="M513 336V148H451V272H74V336H513Z" />
<glyph unicode="&#xad;" horiz-adv-x="314" d="M50 297L277 325L284 260L57 232L50 297Z" />
<glyph unicode="&#xae;" horiz-adv-x="615" d="M306 204Q228 204 167 239T70 337T34 477Q34 555 69 616T166 713T306 748Q385 748 447 713T544 617T580 477Q580 399 545 337T447 240T306 204ZM174 351V368Q182 372 192 374T214 379L218 591L174 603V621H269V378L308
369V351H174ZM306 236Q375 236 429 267T516 353T548 477Q548 546 516 599T430 684T305 716Q237 716 183 685T98 600T67 477Q67 408 98 354T183 268T306 236ZM364 351L354 429Q352 448 343 455T313 463H243V496H313Q336 496 351 509T366 544Q366 564 353 575T318
587H243V621H327Q370 621 394 603T419 554Q419 525 398 505T344 479L335 486Q371 482 388 468T409 427L420 351L393 385L452 369V351H364Z" />
<glyph unicode="&#xaf;" horiz-adv-x="437" d="M89 625V687H343V625H89Z" />
<glyph unicode="&#xb0;" horiz-adv-x="425" d="M211 302Q165 302 129 323T71 382T50 465Q50 512 71 548T128 605T211 627Q259 627 295 606T353 548T375 465Q375 418 354 382T296 324T211 302ZM212 346Q263 346 296 380T330 464Q330 516 297 549T212 583Q162 583
129 550T95 464Q95 414 128 380T212 346Z" />
<glyph unicode="&#xb1;" horiz-adv-x="559" d="M78 346V411H481V346H78ZM78 86V151H481V86H78ZM247 211V546H312V211H247Z" />
<glyph unicode="&#xb2;" horiz-adv-x="405" d="M72 375V416Q72 447 92 472T143 520T203 563T253 605T274 652Q274 664 269 676T248 701L284 675Q266 679 246 680T205 682Q178 682 150 680T93 670L83 722Q116 729 146 733T204 737Q268 737 304 716T341 654Q341
622 321 596T270 548T210 504T159 462T138 416V375H72ZM96 375V420L336 426V375H96ZM289 375L327 499H355V375H289ZM83 594V722L146 723L111 594H83Z" />
<glyph unicode="&#xb3;" horiz-adv-x="392" d="M76 387L91 432Q121 425 145 421T189 417Q230 417 254 432T278 476Q278 504 258 519T200 534H155V581H190Q226 581 248 596T271 641Q271 652 266 663T253 683Q241 686 228 687T200 688Q177 688 152 685T99 676L84
720Q115 728 145 733T203 738Q265 738 302 716T340 651Q340 620 319 597T258 561Q302 552 325 530T348 472Q348 423 306 396T194 369Q167 369 137 373T76 387ZM79 496H107L143 386L76 387L79 496ZM87 611L84 720L151 721L114 611H87Z" />
<glyph unicode="&#xb4;" horiz-adv-x="299" d="M46 564L29 593L205 738H217L252 677Q202 645 151 617T46 564Z" />
<glyph unicode="&#xb5;" horiz-adv-x="604" d="M500 70L598 77Q593 49 580 31T548 3T510 -6Q487 -6 466 6T429 41T408 99L417 386L364 455Q430 493 500 501V70ZM102 -196L115 386L62 455Q130 493 199 501L198 85L182 52L203 -184V-196H102ZM298 -7Q292 -8 287
-9T274 -10Q197 -10 140 52L184 120Q239 72 301 72Q358 72 416 115L417 95Q391 61 362 36T298 -7Z" />
<glyph unicode="&#xb6;" horiz-adv-x="547" d="M259 -122L245 -105L360 59V658H557V627Q531 619 505 613T452 603V143Q452 55 405 -10T259 -122ZM235 238Q129 238 69 295T8 450Q8 547 68 602T235 658V238ZM225 593L235 658H407V593H225Z" />
<glyph unicode="&#xb7;" horiz-adv-x="273" d="M129 217Q112 230 101 250T84 294Q99 310 119 321T162 337Q178 322 190 302T205 260Q192 244 171 232T129 217Z" />
<glyph unicode="&#xb8;" horiz-adv-x="305" d="M61 -216L67 -153Q105 -164 136 -170T203 -179Q209 -174 213 -166T217 -152Q217 -140 208 -132T174 -113T107 -89L132 -36Q208 -54 241 -79T275 -141Q275 -180 246 -203T168 -230T61 -216ZM130 15H166L144 -89H107L130 15Z" />
<glyph unicode="&#xb9;" horiz-adv-x="291" d="M46 375V398Q67 403 88 407T128 413L134 681H49V704L160 734H201V412L280 401V375H46Z" />
<glyph unicode="&#xba;" horiz-adv-x="371" d="M190 406Q124 406 85 447T46 559Q46 632 87 676T198 721Q264 721 304 680T344 569Q344 495 302 451T190 406ZM194 449Q230 449 252 478T274 564Q274 618 253 647T192 676Q174 676 154 670T106 652L145 679Q130 652
123 624T115 563Q115 507 137 478T194 449Z" />
<glyph unicode="&#xbb;" horiz-adv-x="437" d="M262 446L428 252V237L262 41L228 67L346 245L228 422L262 446ZM74 446L239 252V237L74 41L39 67L157 245L39 422L74 446Z" />
<glyph unicode="&#xbc;" horiz-adv-x="757" d="M55 247V270Q76 275 97 279T137 285L143 553H58V576L169 606H210V284L289 273V247H55ZM143 -52L101 -20L623 657L664 626L143 -52ZM518 0V22Q535 27 550 30T582 36L588 316L601 310L443 112L434 135H724V96H413L405
127L588 356H649V36L707 24V0H518Z" />
<glyph unicode="&#xbd;" horiz-adv-x="836" d="M55 247V270Q76 275 97 279T137 285L143 553H58V576L169 606H210V284L289 273V247H55ZM143 -52L101 -20L623 657L664 626L143 -52ZM496 0V41Q496 72 516 97T567 145T627 188T677 230T698 277Q698 289 693 301T672
326L708 300Q690 304 670 305T629 307Q602 307 574 305T517 295L507 347Q540 354 570 358T628 362Q692 362 728 341T765 279Q765 247 745 221T694 173T634 129T583 87T562 41V0H496ZM520 0V45L760 51V0H520ZM713 0L751 124H779V0H713ZM507 219V347L570 348L535
219H507Z" />
<glyph unicode="&#xbe;" horiz-adv-x="801" d="M86 259L101 304Q131 297 155 293T199 289Q240 289 264 304T288 348Q288 376 268 391T210 406H165V453H200Q236 453 258 468T281 513Q281 524 276 535T263 555Q251 558 238 559T210 560Q187 560 162 557T109 548L94
592Q125 600 155 605T213 610Q275 610 312 588T350 523Q350 492 329 469T268 433Q312 424 335 402T358 344Q358 295 316 268T204 241Q177 241 147 245T86 259ZM89 368H117L153 258L86 259L89 368ZM97 483L94 592L161 593L124 483H97ZM188 -52L146 -20L668 657L709
626L188 -52ZM563 0V22Q580 27 595 30T627 36L633 316L646 310L488 112L479 135H769V96H458L450 127L633 356H694V36L752 24V0H563Z" />
<glyph unicode="&#xbf;" horiz-adv-x="434" d="M230 -176Q131 -176 75 -137T19 -27Q19 14 37 44T81 96T136 138T184 180T210 231L219 286H275L276 223Q276 190 259 166T217 121T167 80T125 36T108 -20Q108 -61 142 -83T240 -106Q301 -106 379 -85L400 -149Q357
-162 314 -169T230 -176ZM310 -149L366 39H400V-149H310ZM234 373Q218 386 207 406T189 450Q205 466 226 478T268 493Q285 477 296 457T310 416Q296 399 275 388T234 373Z" />
<glyph unicode="&#xc0;" horiz-adv-x="726" d="M649 51Q667 47 684 43T719 32V0H442V32L543 52L347 624H371L169 56Q199 51 228 45T286 32V0H25V32L94 56L318 658H427L649 51ZM196 213V271H540V213H196ZM464 730Q411 755 360 783T258 843L292 904H305L481 759L464 730Z" />
<glyph unicode="&#xc1;" horiz-adv-x="726" d="M649 51Q667 47 684 43T719 32V0H442V32L543 52L347 624H371L169 56Q199 51 228 45T286 32V0H25V32L94 56L318 658H427L649 51ZM196 213V271H540V213H196ZM290 730L273 759L449 904H461L496 843Q446 811 395 783T290 730Z" />
<glyph unicode="&#xc2;" horiz-adv-x="726" d="M649 51Q667 47 684 43T719 32V0H442V32L543 52L347 624H371L169 56Q199 51 228 45T286 32V0H25V32L94 56L318 658H427L649 51ZM196 213V271H540V213H196ZM412 898L526 781L493 750L385 832L277 750L245 781L359 898H412Z" />
<glyph unicode="&#xc3;" horiz-adv-x="726" d="M649 51Q667 47 684 43T719 32V0H442V32L543 52L347 624H371L169 56Q199 51 228 45T286 32V0H25V32L94 56L318 658H427L649 51ZM196 213V271H540V213H196ZM231 755L212 773Q237 812 253 833T281 863T303 872T326
869L447 839L509 891L528 874Q497 824 478 802T446 776T415 777L293 808L231 755Z" />
<glyph unicode="&#xc4;" horiz-adv-x="726" d="M649 51Q667 47 684 43T719 32V0H442V32L543 52L347 624H371L169 56Q199 51 228 45T286 32V0H25V32L94 56L318 658H427L649 51ZM196 213V271H540V213H196ZM300 878Q316 863 327 844T341 804Q328 789 309 778T268
764Q253 777 242 796T225 837Q240 852 259 863T300 878ZM476 878Q492 863 503 844T517 804Q504 789 485 778T444 764Q428 777 417 796T402 837Q416 852 435 863T476 878Z" />
<glyph unicode="&#xc5;" horiz-adv-x="726" d="M649 51Q667 47 684 43T719 32V0H442V32L543 52L347 624H371L169 56Q199 51 228 45T286 32V0H25V32L94 56L318 658H427L649 51ZM196 213V271H540V213H196ZM370 728Q342 728 322 740T289 773T276 821Q276 848 288
869T322 903T370 915Q410 915 436 889T463 822Q463 794 451 773T418 740T370 728ZM369 770Q392 770 406 785T421 821Q421 844 407 858T369 872Q348 872 334 858T319 821Q319 800 333 785T369 770Z" />
<glyph unicode="&#xc6;" horiz-adv-x="984" d="M863 221H896V0H416V32L525 54L386 631L410 629L144 53Q173 48 200 43T255 31V0H16V32L69 56L331 604L224 625V658H867V457H833L797 595H441L472 634L629 23L580 62H825L863 221ZM732 224L689 339L732 453H763V224H732ZM193
213L194 271H532L531 213H193ZM503 309V370H746L745 309H503Z" />
<glyph unicode="&#xc7;" horiz-adv-x="686" d="M402 -8Q247 -8 164 78T80 326Q80 433 120 510T237 628T418 669Q458 669 502 663T594 645L573 569Q530 583 487 590T401 597Q354 597 308 587T217 557L255 586Q217 528 198 463T179 324Q179 196 239 128T411 60Q445
60 484 67T569 90L594 19Q487 -8 402 -8ZM496 18L558 219H594V19L496 18ZM558 445L497 646L594 645V445H558ZM318 -216L324 -153Q362 -164 393 -170T460 -179Q466 -174 470 -166T474 -152Q474 -140 465 -132T431 -113T364 -89L389 -36Q465 -54 498 -79T532 -141Q532
-180 503 -203T425 -230T318 -216ZM387 15H423L401 -89H364L387 15Z" />
<glyph unicode="&#xc8;" horiz-adv-x="713" d="M590 221H625V0H55V31Q82 40 108 46T160 55L170 601L55 624V658H615V457H580L544 595H221L261 636V369H439L470 454H501V221H470L438 307H261V23L221 63H552L590 221ZM468 730Q415 755 364 783T262 843L296 904H309L485
759L468 730Z" />
<glyph unicode="&#xc9;" horiz-adv-x="713" d="M590 221H625V0H55V31Q82 40 108 46T160 55L170 601L55 624V658H615V457H580L544 595H221L261 636V369H439L470 454H501V221H470L438 307H261V23L221 63H552L590 221ZM294 730L277 759L453 904H465L500 843Q450 811
399 783T294 730Z" />
<glyph unicode="&#xca;" horiz-adv-x="713" d="M590 221H625V0H55V31Q82 40 108 46T160 55L170 601L55 624V658H615V457H580L544 595H221L261 636V369H439L470 454H501V221H470L438 307H261V23L221 63H552L590 221ZM416 898L530 781L497 750L389 832L281 750L249
781L363 898H416Z" />
<glyph unicode="&#xcb;" horiz-adv-x="713" d="M590 221H625V0H55V31Q82 40 108 46T160 55L170 601L55 624V658H615V457H580L544 595H221L261 636V369H439L470 454H501V221H470L438 307H261V23L221 63H552L590 221ZM304 878Q320 863 331 844T345 804Q332 789 313
778T272 764Q257 777 246 796T229 837Q244 852 263 863T304 878ZM480 878Q496 863 507 844T521 804Q508 789 489 778T448 764Q432 777 421 796T406 837Q420 852 439 863T480 878Z" />
<glyph unicode="&#xcc;" horiz-adv-x="404" d="M55 0V31Q82 40 108 46T160 55L170 601L55 624V658H366V627Q342 620 316 614T261 603V55L366 35V0H55ZM305 730Q252 755 201 783T99 843L133 904H146L322 759L305 730Z" />
<glyph unicode="&#xcd;" horiz-adv-x="404" d="M55 0V31Q82 40 108 46T160 55L170 601L55 624V658H366V627Q342 620 316 614T261 603V55L366 35V0H55ZM131 730L114 759L290 904H302L337 843Q287 811 236 783T131 730Z" />
<glyph unicode="&#xce;" horiz-adv-x="404" d="M55 0V31Q82 40 108 46T160 55L170 601L55 624V658H366V627Q342 620 316 614T261 603V55L366 35V0H55ZM253 898L367 781L334 750L226 832L118 750L86 781L200 898H253Z" />
<glyph unicode="&#xcf;" horiz-adv-x="404" d="M55 0V31Q82 40 108 46T160 55L170 601L55 624V658H366V627Q342 620 316 614T261 603V55L366 35V0H55ZM141 878Q157 863 168 844T182 804Q169 789 150 778T109 764Q94 777 83 796T66 837Q81 852 100 863T141 878ZM317
878Q333 863 344 844T358 804Q345 789 326 778T285 764Q269 777 258 796T243 837Q257 852 276 863T317 878Z" />
<glyph unicode="&#xd0;" horiz-adv-x="788" d="M440 658Q529 658 593 619T694 508T730 338Q730 237 692 161T586 43T427 0H79V31Q102 39 128 45T184 55L194 601L79 624V658H440ZM483 63Q556 96 593 162T630 328Q630 399 615 449T571 532T507 579T427 595H245L285
634V23L245 63H483ZM83 363H432V309H83V363Z" />
<glyph unicode="&#xd1;" horiz-adv-x="813" d="M503 658H791V627Q764 619 739 613T687 603L686 0H586L210 573L232 579V55L354 35V0H56V31Q83 40 108 46T160 55L169 601L55 624V658H268L644 85L624 79L614 604L503 624V658ZM276 755L257 773Q282 812 298 833T326
863T348 872T371 869L492 839L554 891L573 874Q542 824 523 802T491 776T460 777L338 808L276 755Z" />
<glyph unicode="&#xd2;" horiz-adv-x="744" d="M374 -9Q286 -9 220 31T116 146T79 320Q79 422 119 500T228 622T387 667Q476 667 543 626T648 511T686 339Q686 235 647 157T538 35T374 -9ZM382 54Q443 54 488 88T560 185T586 332Q586 414 561 474T490 566T380
599Q338 599 296 584T218 538L254 580Q178 460 178 323Q178 242 203 182T275 88T382 54ZM474 730Q421 755 370 783T268 843L302 904H315L491 759L474 730Z" />
<glyph unicode="&#xd3;" horiz-adv-x="744" d="M374 -9Q286 -9 220 31T116 146T79 320Q79 422 119 500T228 622T387 667Q476 667 543 626T648 511T686 339Q686 235 647 157T538 35T374 -9ZM382 54Q443 54 488 88T560 185T586 332Q586 414 561 474T490 566T380
599Q338 599 296 584T218 538L254 580Q178 460 178 323Q178 242 203 182T275 88T382 54ZM299 730L282 759L458 904H470L505 843Q455 811 404 783T299 730Z" />
<glyph unicode="&#xd4;" horiz-adv-x="744" d="M374 -9Q286 -9 220 31T116 146T79 320Q79 422 119 500T228 622T387 667Q476 667 543 626T648 511T686 339Q686 235 647 157T538 35T374 -9ZM382 54Q443 54 488 88T560 185T586 332Q586 414 561 474T490 566T380
599Q338 599 296 584T218 538L254 580Q178 460 178 323Q178 242 203 182T275 88T382 54ZM422 898L536 781L503 750L395 832L287 750L255 781L369 898H422Z" />
<glyph unicode="&#xd5;" horiz-adv-x="744" d="M374 -9Q286 -9 220 31T116 146T79 320Q79 422 119 500T228 622T387 667Q476 667 543 626T648 511T686 339Q686 235 647 157T538 35T374 -9ZM382 54Q443 54 488 88T560 185T586 332Q586 414 561 474T490 566T380
599Q338 599 296 584T218 538L254 580Q178 460 178 323Q178 242 203 182T275 88T382 54ZM242 755L223 773Q248 812 264 833T292 863T314 872T337 869L458 839L520 891L539 874Q508 824 489 802T457 776T426 777L304 808L242 755Z" />
<glyph unicode="&#xd6;" horiz-adv-x="744" d="M374 -9Q286 -9 220 31T116 146T79 320Q79 422 119 500T228 622T387 667Q476 667 543 626T648 511T686 339Q686 235 647 157T538 35T374 -9ZM382 54Q443 54 488 88T560 185T586 332Q586 414 561 474T490 566T380
599Q338 599 296 584T218 538L254 580Q178 460 178 323Q178 242 203 182T275 88T382 54ZM310 878Q326 863 337 844T351 804Q338 789 319 778T278 764Q263 777 252 796T235 837Q250 852 269 863T310 878ZM486 878Q502 863 513 844T527 804Q514 789 495 778T454 764Q438
777 427 796T412 837Q426 852 445 863T486 878Z" />
<glyph unicode="&#xd7;" horiz-adv-x="493" d="M113 105L67 151L380 464L426 418L113 105ZM380 105L67 418L113 464L426 151L380 105Z" />
<glyph unicode="&#xd8;" horiz-adv-x="747" d="M263 52L198 -86L149 -66L217 76L263 52ZM366 -9Q278 -9 212 31T108 146T71 320Q71 422 110 500T219 622T379 667Q468 667 535 626T640 511T678 339Q678 235 639 157T530 35T366 -9ZM374 54Q435 54 481 88T552 185T578
332Q578 414 553 474T482 566T372 599Q336 599 301 588T235 557Q170 446 170 323Q170 242 195 182T267 88T374 54ZM470 614L530 739L578 720L519 592L470 614ZM217 76L470 614L519 592L263 52L217 76Z" />
<glyph unicode="&#xd9;" horiz-adv-x="779" d="M399 -10Q275 -10 209 46T143 206L150 601L35 624V658H343V627Q323 619 299 613T240 603V201Q240 131 283 94T409 57Q469 57 509 75T580 134L586 601L476 624V658H762V627Q740 619 714 613T656 603L657 216Q657 108
589 49T399 -10ZM500 730Q447 755 396 783T294 843L328 904H341L517 759L500 730Z" />
<glyph unicode="&#xda;" horiz-adv-x="779" d="M398 -10Q274 -10 208 46T142 206L149 601L34 624V658H342V627Q322 619 298 613T239 603V201Q239 131 282 94T408 57Q468 57 508 75T579 134L585 601L475 624V658H761V627Q739 619 713 613T655 603L656 216Q656 108
588 49T398 -10ZM326 730L309 759L485 904H497L532 843Q482 811 431 783T326 730Z" />
<glyph unicode="&#xdb;" horiz-adv-x="779" d="M399 -10Q275 -10 209 46T143 206L150 601L35 624V658H343V627Q323 619 299 613T240 603V201Q240 131 283 94T409 57Q469 57 509 75T580 134L586 601L476 624V658H762V627Q740 619 714 613T656 603L657 216Q657 108
589 49T399 -10ZM448 898L562 781L529 750L421 832L313 750L281 781L395 898H448Z" />
<glyph unicode="&#xdc;" horiz-adv-x="779" d="M398 -10Q274 -10 208 46T142 206L149 601L34 624V658H342V627Q322 619 298 613T239 603V201Q239 131 282 94T408 57Q468 57 508 75T579 134L585 601L475 624V658H761V627Q739 619 713 613T655 603L656 216Q656 108
588 49T398 -10ZM336 878Q352 863 363 844T377 804Q364 789 345 778T304 764Q289 777 278 796T261 837Q276 852 295 863T336 878ZM512 878Q528 863 539 844T553 804Q540 789 521 778T480 764Q464 777 453 796T438 837Q452 852 471 863T512 878Z" />
<glyph unicode="&#xdd;" horiz-adv-x="703" d="M332 213L96 623V648H199L390 296H360L554 648H622L623 624L381 213H332ZM184 0V31Q215 40 244 46T305 55L309 289H405V55L527 35V0H184ZM154 588L24 623V658H338V629Q294 612 248 602T154 588ZM551 588L415 623V658H698V629Q663
612 626 602T551 588ZM288 730L271 759L447 904H459L494 843Q444 811 393 783T288 730Z" />
<glyph unicode="&#xde;" horiz-adv-x="655" d="M45 0V31Q72 40 98 46T150 55L160 601L45 624V658H356V629Q332 621 306 615T251 604V54L356 34V0H45ZM202 145V206H436Q478 234 497 266T517 342Q517 405 482 438T380 471H202V531H399Q498 531 554 484T611 350Q611
288 581 242T497 171T370 145H202Z" />
<glyph unicode="&#xdf;" horiz-adv-x="663" d="M295 15L316 73Q360 63 401 58T485 53Q503 53 523 54T565 57L514 50Q532 56 544 75T557 114Q557 137 541 155T498 190T442 223T386 261T342 307T325 369Q325 400 340 422T377 462T420 497T457 535T472 585Q472 629
437 651T334 674Q313 674 288 672T236 664Q219 639 212 584T204 435H35V453Q53 466 73 475T118 488Q123 576 151 633T229 719T353 747Q445 747 499 707T554 600Q554 564 539 538T502 491T459 454T422 418T407 378Q407 356 423 339T466 306T521 274T577 238T619
192T636 129Q636 87 610 57T539 10T436 -7Q403 -7 368 -2T295 15ZM44 0V27Q60 35 76 41T110 51L118 435H204V0H44ZM374 14L295 15L299 164H330L374 14Z" />
<glyph unicode="&#xe0;" horiz-adv-x="527" d="M438 -6Q406 -6 378 17T340 87L352 386Q284 438 186 438Q167 438 149 436T114 430L166 456L147 310Q109 316 90 333T71 377Q71 410 95 438T161 483T254 500Q308 500 354 478T436 417V75L532 81Q529 53 515 34T481
4T438 -6ZM217 -10Q145 -10 102 27T59 123Q59 152 72 173T118 212T212 249T368 291V239L136 196L166 210Q161 195 159 179T156 148Q156 108 175 86T234 64Q262 64 293 75T359 110V94Q329 62 295 36T217 -10ZM361 564Q308 589 257 617T155 677L189 738H202L378 593L361
564Z" />
<glyph unicode="&#xe1;" horiz-adv-x="527" d="M438 -6Q406 -6 378 17T340 87L352 386Q284 438 186 438Q167 438 149 436T114 430L166 456L147 310Q109 316 90 333T71 377Q71 410 95 438T161 483T254 500Q308 500 354 478T436 417V75L532 81Q529 53 515 34T481
4T438 -6ZM217 -10Q145 -10 102 27T59 123Q59 152 72 173T118 212T212 249T368 291V239L136 196L166 210Q161 195 159 179T156 148Q156 108 175 86T234 64Q262 64 293 75T359 110V94Q329 62 295 36T217 -10ZM186 564L169 593L345 738H357L392 677Q342 645 291 617T186
564Z" />
<glyph unicode="&#xe2;" horiz-adv-x="527" d="M438 -6Q406 -6 378 17T340 87L352 386Q284 438 186 438Q167 438 149 436T114 430L166 456L147 310Q109 316 90 333T71 377Q71 410 95 438T161 483T254 500Q308 500 354 478T436 417V75L532 81Q529 53 515 34T481
4T438 -6ZM217 -10Q145 -10 102 27T59 123Q59 152 72 173T118 212T212 249T368 291V239L136 196L166 210Q161 195 159 179T156 148Q156 108 175 86T234 64Q262 64 293 75T359 110V94Q329 62 295 36T217 -10ZM309 732L423 615L390 584L282 666L174 584L142 615L256
732H309Z" />
<glyph unicode="&#xe3;" horiz-adv-x="527" d="M438 -6Q406 -6 378 17T340 87L352 386Q284 438 186 438Q167 438 149 436T114 430L166 456L147 310Q109 316 90 333T71 377Q71 410 95 438T161 483T254 500Q308 500 354 478T436 417V75L532 81Q529 53 515 34T481
4T438 -6ZM217 -10Q145 -10 102 27T59 123Q59 152 72 173T118 212T212 249T368 291V239L136 196L166 210Q161 195 159 179T156 148Q156 108 175 86T234 64Q262 64 293 75T359 110V94Q329 62 295 36T217 -10ZM128 589L109 607Q134 646 150 667T178 697T200 706T223
703L344 673L406 725L425 708Q394 658 375 636T343 610T312 611L190 642L128 589Z" />
<glyph unicode="&#xe4;" horiz-adv-x="527" d="M438 -6Q406 -6 378 17T340 87L352 386Q284 438 186 438Q167 438 149 436T114 430L166 456L147 310Q109 316 90 333T71 377Q71 410 95 438T161 483T254 500Q308 500 354 478T436 417V75L532 81Q529 53 515 34T481
4T438 -6ZM217 -10Q145 -10 102 27T59 123Q59 152 72 173T118 212T212 249T368 291V239L136 196L166 210Q161 195 159 179T156 148Q156 108 175 86T234 64Q262 64 293 75T359 110V94Q329 62 295 36T217 -10ZM197 712Q213 697 224 678T238 638Q225 623 206 612T165
598Q150 611 139 630T122 671Q137 686 156 697T197 712ZM373 712Q389 697 400 678T414 638Q401 623 382 612T341 598Q325 611 314 630T299 671Q313 686 332 697T373 712Z" />
<glyph unicode="&#xe5;" horiz-adv-x="527" d="M438 -6Q406 -6 378 17T340 87L352 386Q284 438 186 438Q167 438 149 436T114 430L166 456L147 310Q109 316 90 333T71 377Q71 410 95 438T161 483T254 500Q308 500 354 478T436 417V75L532 81Q529 53 515 34T481
4T438 -6ZM217 -10Q145 -10 102 27T59 123Q59 152 72 173T118 212T212 249T368 291V239L136 196L166 210Q161 195 159 179T156 148Q156 108 175 86T234 64Q262 64 293 75T359 110V94Q329 62 295 36T217 -10ZM267 562Q239 562 219 574T186 607T173 655Q173 682 185
703T219 737T267 749Q307 749 333 723T360 656Q360 628 348 607T315 574T267 562ZM266 604Q289 604 303 619T318 655Q318 678 304 692T266 706Q245 706 231 692T216 655Q216 634 230 619T266 604Z" />
<glyph unicode="&#xe6;" horiz-adv-x="790" d="M542 -9Q443 -9 389 60T335 259Q335 377 392 437T562 498Q615 498 654 475T715 411T737 316L733 253Q674 242 622 236T514 226T387 221V269L653 272L657 318Q657 373 627 405T545 437Q523 437 496 430T443 411Q432
377 425 340T418 265Q418 164 461 113T580 61Q613 61 651 70T731 98L737 82Q648 -9 542 -9ZM218 -10Q137 -10 94 24T51 121Q51 151 63 172T109 211T202 248T359 290V240L148 197Q144 183 143 170T141 145Q141 103 161 81T221 59Q258 59 299 77T386 131L389 112Q351
71 310 42T218 -10ZM365 369Q288 441 179 441Q143 441 105 430L153 456L134 311Q98 317 80 334T61 378Q61 412 85 439T150 482T240 498Q297 498 347 475T433 406L365 369Z" />
<glyph unicode="&#xe7;" horiz-adv-x="464" d="M258 -9Q199 -9 153 23T82 111T56 241Q56 321 85 379T166 468T286 499Q319 499 352 492T417 471L403 402Q336 432 256 432Q230 432 204 425T154 404L194 437Q171 395 159 348T147 255Q147 194 166 152T221 87T301
64Q329 64 359 72T422 98L429 82Q357 -9 258 -9ZM381 324L335 471H417L415 324H381ZM167 -216L173 -153Q211 -164 242 -170T309 -179Q315 -174 319 -166T323 -152Q323 -140 314 -132T280 -113T213 -89L238 -36Q314 -54 347 -79T381 -141Q381 -180 352 -203T274
-230T167 -216ZM236 15H272L250 -89H213L236 15Z" />
<glyph unicode="&#xe8;" horiz-adv-x="503" d="M265 -9Q202 -9 155 22T82 108T56 238Q56 315 83 373T161 465T279 499Q333 499 374 476T437 412T460 316L458 251Q398 240 345 234T234 225T109 219V272L376 275L378 318Q378 372 348 404T269 436Q248 436 225 430T181
411Q162 374 152 334T141 253Q141 161 185 112T305 63Q371 63 454 101L461 83Q418 38 368 15T265 -9ZM367 564Q314 589 263 617T161 677L195 738H208L384 593L367 564Z" />
<glyph unicode="&#xe9;" horiz-adv-x="503" d="M265 -9Q202 -9 155 22T82 108T56 238Q56 315 83 373T161 465T279 499Q333 499 374 476T437 412T460 316L458 251Q398 240 345 234T234 225T109 219V272L376 275L378 318Q378 372 348 404T269 436Q248 436 225 430T181
411Q162 374 152 334T141 253Q141 161 185 112T305 63Q371 63 454 101L461 83Q418 38 368 15T265 -9ZM193 564L176 593L352 738H364L399 677Q349 645 298 617T193 564Z" />
<glyph unicode="&#xea;" horiz-adv-x="503" d="M265 -9Q202 -9 155 22T82 108T56 238Q56 315 83 373T161 465T279 499Q333 499 374 476T437 412T460 316L458 251Q398 240 345 234T234 225T109 219V272L376 275L378 318Q378 372 348 404T269 436Q248 436 225 430T181
411Q162 374 152 334T141 253Q141 161 185 112T305 63Q371 63 454 101L461 83Q418 38 368 15T265 -9ZM315 732L429 615L396 584L288 666L180 584L148 615L262 732H315Z" />
<glyph unicode="&#xeb;" horiz-adv-x="503" d="M265 -9Q202 -9 155 22T82 108T56 238Q56 315 83 373T161 465T279 499Q333 499 374 476T437 412T460 316L458 251Q398 240 345 234T234 225T109 219V272L376 275L378 318Q378 372 348 404T269 436Q248 436 225 430T181
411Q162 374 152 334T141 253Q141 161 185 112T305 63Q371 63 454 101L461 83Q418 38 368 15T265 -9ZM202 712Q218 697 229 678T243 638Q230 623 211 612T170 598Q155 611 144 630T127 671Q142 686 161 697T202 712ZM378 712Q394 697 405 678T419 638Q406 623 387
612T346 598Q330 611 319 630T304 671Q318 686 337 697T378 712Z" />
<glyph unicode="&#xec;" horiz-adv-x="294" d="M43 0V27Q57 35 73 41T109 51L119 386L66 455Q97 474 131 485T203 501V49L274 29V0H43ZM249 564Q196 589 145 617T43 677L77 738H90L266 593L249 564Z" />
<glyph unicode="&#xed;" horiz-adv-x="294" d="M43 0V27Q57 35 73 41T109 51L119 386L66 455Q97 474 131 485T203 501V49L274 29V0H43ZM75 564L58 593L234 738H246L281 677Q231 645 180 617T75 564Z" />
<glyph unicode="&#xee;" horiz-adv-x="294" d="M43 0V27Q57 35 73 41T109 51L119 386L66 455Q97 474 131 485T203 501V49L274 29V0H43ZM453 732L567 615L534 584L426 666L318 584L286 615L400 732H453Z" />
<glyph unicode="&#xef;" horiz-adv-x="294" d="M43 0V27Q57 35 73 41T109 51L119 386L66 455Q97 474 131 485T203 501V49L274 29V0H43ZM341 712Q357 697 368 678T382 638Q369 623 350 612T309 598Q294 611 283 630T266 671Q281 686 300 697T341 712ZM517 712Q533
697 544 678T558 638Q545 623 526 612T485 598Q469 611 458 630T443 671Q457 686 476 697T517 712Z" />
<glyph unicode="&#xf0;" horiz-adv-x="545" d="M262 -9Q195 -9 147 20T72 105T46 235Q46 315 75 373T153 461T264 492Q303 492 343 477T421 427L415 367Q383 398 343 414T260 430Q240 430 219 425T177 408Q157 367 147 325T137 238Q137 180 153 138T199 73T268
50Q308 50 337 73T382 141T398 248Q398 338 368 418T275 574T114 723L150 748Q260 683 336 605T451 440T490 258Q490 177 462 117T383 24T262 -9ZM128 542L111 587L423 691L438 645L128 542Z" />
<glyph unicode="&#xf1;" horiz-adv-x="591" d="M43 0V27Q56 34 71 40T109 51L119 386L66 455Q126 491 194 501L203 396V49L274 29V0H43ZM345 0V27Q358 35 373 41T411 51L422 376L505 418V49L577 29V0H345ZM196 375L194 395Q222 428 253 453T319 497Q326 498 332
498T344 499Q392 499 432 479T505 418L422 376Q370 419 312 419Q255 419 196 375ZM174 589L155 607Q180 646 196 667T224 697T246 706T269 703L390 673L452 725L471 708Q440 658 421 636T389 610T358 611L236 642L174 589Z" />
<glyph unicode="&#xf2;" horiz-adv-x="537" d="M271 -9Q205 -9 157 21T83 107T56 237Q56 316 84 375T163 466T283 499Q349 499 398 469T474 383T501 253Q501 173 473 115T393 24T271 -9ZM277 50Q317 50 346 73T392 140T409 247Q409 308 393 350T347 414T275 436Q248
436 217 427T145 397L196 434Q173 389 161 343T148 242Q148 181 164 138T210 73T277 50ZM371 564Q318 589 267 617T165 677L199 738H212L388 593L371 564Z" />
<glyph unicode="&#xf3;" horiz-adv-x="537" d="M271 -9Q205 -9 157 21T83 107T56 237Q56 316 84 375T163 466T283 499Q349 499 398 469T474 383T501 253Q501 173 473 115T393 24T271 -9ZM277 50Q317 50 346 73T392 140T409 247Q409 308 393 350T347 414T275 436Q248
436 217 427T145 397L196 434Q173 389 161 343T148 242Q148 181 164 138T210 73T277 50ZM197 564L180 593L356 738H368L403 677Q353 645 302 617T197 564Z" />
<glyph unicode="&#xf4;" horiz-adv-x="537" d="M271 -9Q205 -9 157 21T83 107T56 237Q56 316 84 375T163 466T283 499Q349 499 398 469T474 383T501 253Q501 173 473 115T393 24T271 -9ZM277 50Q317 50 346 73T392 140T409 247Q409 308 393 350T347 414T275 436Q248
436 217 427T145 397L196 434Q173 389 161 343T148 242Q148 181 164 138T210 73T277 50ZM319 732L433 615L400 584L292 666L184 584L152 615L266 732H319Z" />
<glyph unicode="&#xf5;" horiz-adv-x="537" d="M271 -9Q205 -9 157 21T83 107T56 237Q56 316 84 375T163 466T283 499Q349 499 398 469T474 383T501 253Q501 173 473 115T393 24T271 -9ZM277 50Q317 50 346 73T392 140T409 247Q409 308 393 350T347 414T275 436Q248
436 217 427T145 397L196 434Q173 389 161 343T148 242Q148 181 164 138T210 73T277 50ZM139 589L120 607Q145 646 161 667T189 697T211 706T234 703L355 673L417 725L436 708Q405 658 386 636T354 610T323 611L201 642L139 589Z" />
<glyph unicode="&#xf6;" horiz-adv-x="537" d="M271 -9Q205 -9 157 21T83 107T56 237Q56 316 84 375T163 466T283 499Q349 499 398 469T474 383T501 253Q501 173 473 115T393 24T271 -9ZM277 50Q317 50 346 73T392 140T409 247Q409 308 393 350T347 414T275 436Q248
436 217 427T145 397L196 434Q173 389 161 343T148 242Q148 181 164 138T210 73T277 50ZM207 712Q223 697 234 678T248 638Q235 623 216 612T175 598Q160 611 149 630T132 671Q147 686 166 697T207 712ZM383 712Q399 697 410 678T424 638Q411 623 392 612T351 598Q335
611 324 630T309 671Q323 686 342 697T383 712Z" />
<glyph unicode="&#xf7;" horiz-adv-x="529" d="M42 252V316H485V252H42ZM244 49Q232 62 224 80T213 118Q227 131 245 139T283 149Q296 135 304 117T313 79Q300 66 282 58T244 49ZM244 419Q232 432 224 450T213 488Q227 501 245 509T283 519Q296 505 304 487T313
449Q300 437 282 429T244 419Z" />
<glyph unicode="&#xf8;" horiz-adv-x="544" d="M210 31L150 -112L101 -95L163 54L210 31ZM265 -9Q199 -9 151 21T76 107T49 237Q49 316 77 375T157 466T277 499Q343 499 392 469T468 383T496 253Q496 173 467 115T387 24T265 -9ZM271 50Q311 50 341 73T387 140T404
247Q404 308 388 350T341 414T268 436Q224 436 181 411Q160 372 150 329T140 242Q140 181 156 138T202 73T271 50ZM331 458L390 602L440 586L378 436L331 458ZM163 54L331 458L378 436L210 31L163 54Z" />
<glyph unicode="&#xf9;" horiz-adv-x="590" d="M489 70L585 77Q580 49 567 31T535 3T497 -6Q474 -6 453 6T416 41T396 99L404 386L351 455Q418 493 489 501V70ZM281 -7Q274 -8 268 -8T255 -9Q206 -9 166 11T93 75L172 120Q227 72 289 72Q346 72 403 115L406 95Q378
61 347 36T281 -7ZM93 75L103 386L49 455Q118 493 187 501V88L93 75ZM389 564Q336 589 285 617T183 677L217 738H230L406 593L389 564Z" />
<glyph unicode="&#xfa;" horiz-adv-x="590" d="M489 70L585 77Q580 49 567 31T535 3T497 -6Q474 -6 453 6T416 41T396 99L404 386L351 455Q418 493 489 501V70ZM281 -7Q274 -8 268 -8T255 -9Q206 -9 166 11T93 75L172 120Q227 72 289 72Q346 72 403 115L406 95Q378
61 347 36T281 -7ZM93 75L103 386L49 455Q118 493 187 501V88L93 75ZM215 564L198 593L374 738H386L421 677Q371 645 320 617T215 564Z" />
<glyph unicode="&#xfb;" horiz-adv-x="590" d="M489 70L585 77Q580 49 567 31T535 3T497 -6Q474 -6 453 6T416 41T396 99L404 386L351 455Q418 493 489 501V70ZM281 -7Q274 -8 268 -8T255 -9Q206 -9 166 11T93 75L172 120Q227 72 289 72Q346 72 403 115L406 95Q378
61 347 36T281 -7ZM93 75L103 386L49 455Q118 493 187 501V88L93 75ZM337 732L451 615L418 584L310 666L202 584L170 615L284 732H337Z" />
<glyph unicode="&#xfc;" horiz-adv-x="590" d="M489 70L585 77Q580 49 567 31T535 3T497 -6Q474 -6 453 6T416 41T396 99L404 386L351 455Q418 493 489 501V70ZM281 -7Q274 -8 268 -8T255 -9Q206 -9 166 11T93 75L172 120Q227 72 289 72Q346 72 403 115L406 95Q378
61 347 36T281 -7ZM93 75L103 386L49 455Q118 493 187 501V88L93 75ZM225 712Q241 697 252 678T266 638Q253 623 234 612T193 598Q178 611 167 630T150 671Q165 686 184 697T225 712ZM401 712Q417 697 428 678T442 638Q429 623 410 612T369 598Q353 611 342 630T327
671Q341 686 360 697T401 712Z" />
<glyph unicode="&#xfd;" horiz-adv-x="501" d="M-20 -184L-14 -119L170 -131Q195 -98 212 -69T244 -8T274 69L414 480H483L328 51Q281 -80 223 -141T84 -203Q61 -203 35 -198T-20 -184ZM207 8L38 480H139L286 26L207 8ZM107 422Q80 427 54 436T4 460V490H216V460L107
422ZM452 422Q418 427 385 436T320 460V490H512V460L452 422ZM182 564L165 593L341 738H353L388 677Q338 645 287 617T182 564Z" />
<glyph unicode="&#xfe;" horiz-adv-x="552" d="M19 -196V-168Q31 -162 46 -156T84 -144L95 631L41 705Q72 722 106 734T178 750V-146L268 -167V-196H19ZM104 18L121 85Q163 70 197 62T258 54Q333 54 374 103T416 241Q416 289 404 332T368 411L415 365Q350 419
282 419Q225 419 170 376L169 399Q195 428 224 453T287 498Q293 499 298 499T310 499Q399 495 452 430T506 254Q506 172 475 113T387 23T254 -9Q184 -9 104 18Z" />
<glyph unicode="&#xff;" horiz-adv-x="501" d="M-20 -184L-14 -119L170 -131Q195 -98 212 -69T244 -8T274 69L414 480H483L328 51Q281 -80 223 -141T84 -203Q61 -203 35 -198T-20 -184ZM207 8L38 480H139L286 26L207 8ZM107 422Q80 427 54 436T4 460V490H216V460L107
422ZM452 422Q418 427 385 436T320 460V490H512V460L452 422ZM193 712Q209 697 220 678T234 638Q221 623 202 612T161 598Q146 611 135 630T118 671Q133 686 152 697T193 712ZM369 712Q385 697 396 678T410 638Q397 623 378 612T337 598Q321 611 310 630T295 671Q309
686 328 697T369 712Z" />
<glyph unicode="&#x2013;" horiz-adv-x="564" d="M50 311H514V246H50V311Z" />
<glyph unicode="&#x2014;" horiz-adv-x="1002" d="M50 311H952V246H50V311Z" />
<glyph unicode="&#x2018;" horiz-adv-x="244" d="M167 678L142 526L51 534Q83 611 134 683L167 678ZM132 578L171 504Q153 487 133 477T91 461Q77 476 68 493T51 534L132 578Z" />
<glyph unicode="&#x2019;" horiz-adv-x="245" d="M85 464L109 616L201 608Q185 571 165 534T118 459L85 464ZM120 564L81 639Q100 656 119 666T161 682Q175 667 185 650T201 608L120 564Z" />
<glyph unicode="&#x201a;" horiz-adv-x="242" d="M342 -98L366 54L458 46Q442 9 422 -28T375 -103L342 -98ZM377 2L338 77Q357 94 376 104T418 120Q432 105 442 88T458 46L377 2Z" />
<glyph unicode="&#x201c;" horiz-adv-x="385" d="M167 678L142 526L51 534Q82 611 133 683L167 678ZM132 578L171 504Q152 487 133 477T90 461Q76 476 67 493T51 534L132 578ZM310 678L286 526L194 534Q226 611 277 683L310 678ZM276 578L314 504Q296 487 276
477T234 461Q220 476 211 493T194 534L276 578Z" />
<glyph unicode="&#x201d;" horiz-adv-x="383" d="M220 464L244 616L336 608Q320 571 300 534T253 459L220 464ZM255 564L216 639Q235 656 254 666T296 682Q310 667 320 650T336 608L255 564ZM82 464L106 616L198 608Q182 571 162 534T115 459L82 464ZM117 564L78
639Q97 656 116 666T158 682Q172 667 182 650T198 608L117 564Z" />
<glyph unicode="&#x201e;" horiz-adv-x="386" d="M227 -98L251 54L343 46Q327 9 307 -28T260 -103L227 -98ZM262 2L223 77Q242 94 261 104T303 120Q317 105 327 88T343 46L262 2ZM342 -98L366 54L458 46Q442 9 422 -28T375 -103L342 -98ZM377 2L338 77Q357 94
376 104T418 120Q432 105 442 88T458 46L377 2Z" />
<glyph unicode="&#x2022;" horiz-adv-x="324" d="M189 348Q214 325 232 293T256 227Q234 202 203 184T137 161Q112 182 94 214T68 280Q91 305 122 323T189 348Z" />
<glyph unicode="&#x2039;" horiz-adv-x="248" d="M175 41L9 236V251L175 446L210 421L91 243L210 65L175 41Z" />
<glyph unicode="&#x203a;" horiz-adv-x="248" d="M74 446L239 252V237L74 41L39 67L157 245L39 422L74 446Z" />
</font>
</defs>
</svg>
